# xmcd
#
# Track frame offsets: 
#        150
#        4444
#        22724
#        51405
#        73760
#        102036
#        107447
#        113195
#        152730
#        169244
#        195054
#
# Disc length: 2773 seconds
#
# Revision: 0
# Processed by: cddbd v1.5.2PL0 Copyright (c) Steve Scherf et al.
# Submitted via: ExactAudioCopy v0.99pb4
#
DISCID=810ad30b
DTITLE=Buddy Guy and Junior Wells - Buddy Guy Drinkin' TNT 'N' Smokin' D
DTITLE=ynamite
DYEAR=1900
DGENRE=Blues
TTITLE0=Intro
TTITLE1=Ah'w Baby(Everything Gonna Be Alright)
TTITLE2=How Can One Woman Be So Mean
TTITLE3=Checking on My Baby
TTITLE4=When You See Tears From My Eyes
TTITLE5=Intro
TTITLE6=Ten Years Ago
TTITLE7=Messing With the Kid
TTITLE8=Hoodoo Man Blues
TTITLE9=My Younger Days
TTITLE10=unknown
EXTD=
EXTT0=
EXTT1=
EXTT2=
EXTT3=
EXTT4=
EXTT5=
EXTT6=
EXTT7=
EXTT8=
EXTT9=
EXTT10=
PLAYORDER=
